<svg viewBox="0 0 640 480" xmlns="http://www.w3.org/2000/svg" font-family="'Hiragino Kaku Gothic ProN','Noto Sans JP',sans-serif">
  <rect x="0" y="0" width="640" height="480" rx="10" fill="#1e1e2e" stroke="#313244" stroke-width="2"/>

  <!-- title bar -->
  <rect x="0" y="0" width="640" height="40" rx="10" fill="#181825"/>
  <rect x="0" y="20" width="640" height="20" fill="#181825"/>
  <circle cx="24" cy="20" r="6" fill="#f38ba8"/>
  <circle cx="46" cy="20" r="6" fill="#f9e2af"/>
  <circle cx="68" cy="20" r="6" fill="#a6e3a1"/>
  <text x="320" y="26" fill="#cdd6f4" font-size="15" text-anchor="middle" font-weight="bold">ArcHive サーバー</text>

  <!-- status -->
  <g transform="translate(24,56)">
    <circle cx="8" cy="8" r="7" fill="#a6e3a1"/>
    <text x="24" y="13" fill="#cdd6f4" font-size="15">サーバー稼働中　ポート: 8765</text>
  </g>

  <!-- token panel -->
  <rect x="24" y="84" width="592" height="64" rx="8" fill="#181825"/>
  <text x="40" y="108" fill="#a6adc8" font-size="13">接続用トークン（ペアリング時に自動で渡されます）</text>
  <rect x="40" y="116" width="380" height="22" rx="4" fill="#11111b"/>
  <text x="48" y="132" fill="#94e2d5" font-size="13" font-family="monospace">●●●●●●●●●●●●●●●●●●●●●●●●●●●●</text>
  <rect x="430" y="116" width="76" height="22" rx="4" fill="#313244"/>
  <text x="468" y="132" fill="#cdd6f4" font-size="12" text-anchor="middle">コピー</text>
  <rect x="514" y="116" width="86" height="22" rx="4" fill="#313244"/>
  <text x="557" y="132" fill="#cdd6f4" font-size="12" text-anchor="middle">再生成</text>

  <!-- scan folders -->
  <text x="24" y="178" fill="#cdd6f4" font-size="14" font-weight="bold">スキャン対象フォルダ</text>
  <rect x="24" y="188" width="592" height="110" rx="8" fill="#181825"/>
  <g fill="#cdd6f4" font-size="13" font-family="monospace">
    <text x="40" y="214">📁 D:\Manga\少年コミック</text>
    <text x="40" y="240">📁 D:\Manga\電子書籍</text>
    <text x="40" y="266">📁 E:\自炊\雑誌</text>
  </g>
  <rect x="500" y="200" width="50" height="22" rx="4" fill="#313244"/>
  <text x="525" y="216" fill="#cdd6f4" font-size="12" text-anchor="middle">追加</text>
  <rect x="558" y="200" width="50" height="22" rx="4" fill="#313244"/>
  <text x="583" y="216" fill="#cdd6f4" font-size="12" text-anchor="middle">削除</text>

  <!-- connected devices -->
  <text x="24" y="332" fill="#cdd6f4" font-size="14" font-weight="bold">接続端末</text>
  <rect x="24" y="342" width="592" height="76" rx="8" fill="#181825"/>
  <g font-size="13" fill="#cdd6f4">
    <text x="40" y="368">📱 taka の Pixel　　ステータス: 承認済み</text>
    <text x="40" y="396">📱 不明な端末　　　ステータス: 承認待ち</text>
  </g>
  <rect x="430" y="384" width="60" height="22" rx="4" fill="#a6e3a1"/>
  <text x="460" y="400" fill="#1e1e2e" font-size="12" text-anchor="middle" font-weight="bold">承認</text>
  <rect x="498" y="384" width="60" height="22" rx="4" fill="#f38ba8"/>
  <text x="528" y="400" fill="#1e1e2e" font-size="12" text-anchor="middle" font-weight="bold">拒否</text>

  <!-- buttons -->
  <rect x="24" y="432" width="160" height="32" rx="6" fill="#89b4fa"/>
  <text x="104" y="453" fill="#1e1e2e" font-size="13" text-anchor="middle" font-weight="bold">ブラウザで開く</text>
  <rect x="196" y="432" width="160" height="32" rx="6" fill="#313244"/>
  <text x="276" y="453" fill="#cdd6f4" font-size="13" text-anchor="middle">今すぐ再スキャン</text>
</svg>
